<?xml version="1.0" encoding="UTF-8"?>
<svg xmlns="http://www.w3.org/2000/svg" xmlns:xlink="http://www.w3.org/1999/xlink" width="1575px" height="1053px" viewBox="0 0 1181 790" version="1.1">
<g id="surface1">
<path style=" stroke:none;fill-rule:nonzero;fill:rgb(99.607843%,90.980393%,0%);fill-opacity:1;" d="M 367.945312 41.808594 C 370.769531 42.042969 372.890625 42.757812 375.53125 43.796875 C 376.035156 43.992188 376.535156 44.1875 377.054688 44.390625 C 378.199219 44.839844 379.339844 45.289062 380.480469 45.742188 C 382.632812 46.597656 384.789062 47.4375 386.949219 48.273438 C 395.929688 51.777344 404.671875 55.457031 413.164062 60.019531 C 413.78125 60.34375 414.398438 60.671875 415.035156 61.007812 C 417.054688 62.074219 419.070312 63.15625 421.082031 64.238281 C 421.707031 64.570312 422.332031 64.90625 422.976562 65.246094 C 426.4375 67.140625 429.332031 69.179688 432.261719 71.820312 C 433.753906 73.058594 435.222656 73.679688 437.0625 74.273438 C 440.335938 75.339844 442.847656 77.035156 445.660156 78.957031 C 449.59375 81.554688 453.703125 83.867188 457.777344 86.230469 C 459.730469 87.367188 461.679688 88.503906 463.628906 89.640625 C 464.117188 89.925781 464.605469 90.210938 465.109375 90.507812 C 468.972656 92.769531 472.804688 95.082031 476.632812 97.410156 C 484.710938 102.320312 492.882812 106.933594 501.269531 111.296875 C 510.457031 116.121094 510.457031 116.121094 513.175781 120.019531 C 513.769531 121.953125 513.703125 123.554688 513.59375 125.570312 C 513.554688 129.140625 513.683594 131.347656 515.890625 134.292969 C 520.203125 137.972656 524.894531 141.191406 529.574219 144.375 C 530.199219 144.800781 530.824219 145.226562 531.464844 145.667969 C 534.84375 147.960938 538.25 150.164062 541.761719 152.25 C 549.582031 156.972656 556.761719 162.683594 564.039062 168.191406 C 570.363281 172.976562 576.796875 177.546875 583.347656 182.011719 C 592.347656 188.167969 601.042969 194.628906 609.609375 201.375 C 613.335938 204.304688 617.105469 207.183594 620.867188 210.066406 C 621.429688 210.496094 621.996094 210.929688 622.574219 211.371094 C 630.339844 217.3125 638.132812 223.21875 645.960938 229.078125 C 651.289062 233.070312 656.582031 237.101562 661.875 241.144531 C 665.34375 243.796875 668.824219 246.429688 672.328125 249.03125 C 679.242188 254.226562 685.714844 259.746094 691.941406 265.746094 C 695.671875 269.300781 698.75 271.980469 704.101562 272.335938 C 706.085938 272.007812 707.929688 271.625 709.867188 271.117188 C 710.410156 270.980469 710.957031 270.84375 711.523438 270.707031 C 713.300781 270.261719 715.074219 269.800781 716.847656 269.335938 C 717.464844 269.171875 718.085938 269.011719 718.722656 268.847656 C 721.175781 268.203125 723.632812 267.558594 726.082031 266.898438 C 736.566406 264.082031 736.566406 264.082031 740.84375 264.082031 C 740.84375 263.589844 740.84375 263.09375 740.84375 262.582031 C 739.824219 262.90625 739.824219 262.90625 738.78125 263.238281 C 732.644531 264.980469 726.222656 266.097656 719.847656 265.585938 C 719.351562 264.839844 718.859375 264.097656 718.347656 263.332031 C 724.273438 260.167969 730.234375 257.640625 736.542969 255.363281 C 738.75 254.550781 740.859375 253.660156 743 252.6875 C 746.867188 251.105469 750.878906 250.542969 755 249.988281 C 758.425781 249.503906 761.59375 248.710938 764.898438 247.667969 C 772.710938 245.371094 780.777344 244.546875 788.832031 243.5 C 791.988281 243.082031 795.144531 242.660156 798.300781 242.234375 C 799.101562 242.128906 799.90625 242.019531 800.730469 241.910156 C 807.003906 241.050781 813.238281 240.011719 819.480469 238.9375 C 829.328125 237.25 839.183594 236 849.117188 234.933594 C 854.007812 234.40625 858.894531 233.855469 863.777344 233.304688 C 864.289062 233.246094 864.800781 233.1875 865.324219 233.128906 C 878.433594 231.644531 891.511719 229.9375 904.589844 228.210938 C 905.425781 228.101562 905.425781 228.101562 906.28125 227.992188 C 911.855469 227.257812 917.429688 226.519531 923.003906 225.777344 C 923.867188 225.664062 924.730469 225.546875 925.621094 225.429688 C 927.519531 225.175781 929.417969 224.917969 931.316406 224.65625 C 931.820312 224.585938 932.320312 224.519531 932.839844 224.449219 C 934.238281 224.257812 935.636719 224.0625 937.035156 223.871094 C 940.855469 223.414062 944.65625 223.316406 948.503906 223.242188 C 956.316406 223.023438 964.070312 222.527344 971.855469 221.894531 C 988.085938 220.578125 1004.316406 219.890625 1020.585938 219.3125 C 1026.757812 219.09375 1032.925781 218.839844 1039.09375 218.566406 C 1049.300781 218.125 1059.414062 218.058594 1069.601562 218.929688 C 1070.558594 219.007812 1070.558594 219.007812 1071.535156 219.085938 C 1075.265625 219.445312 1078.777344 220.109375 1082.417969 221 C 1088.824219 222.429688 1095.046875 222.242188 1101.5625 222.070312 C 1103.882812 222.011719 1106.203125 221.964844 1108.527344 221.929688 C 1109.308594 221.902344 1109.308594 221.902344 1110.105469 221.871094 C 1113.402344 221.824219 1115.394531 222.300781 1118.011719 224.320312 C 1119.558594 226.378906 1119.558594 226.378906 1121.011719 228.730469 C 1124.773438 234.847656 1124.773438 234.847656 1130.855469 238.246094 C 1132.664062 238.757812 1133.632812 239.210938 1135.023438 240.496094 C 1136.671875 243.554688 1136.601562 246.953125 1136.824219 250.363281 C 1137.144531 254.054688 1137.726562 256.164062 1140.507812 258.832031 C 1142.117188 259.886719 1142.117188 259.886719 1143.835938 260.660156 C 1147.769531 262.714844 1150.3125 265.007812 1151.757812 269.335938 C 1153.347656 279.824219 1153.570312 290.539062 1153.773438 301.128906 C 1153.820312 303.492188 1153.882812 305.851562 1153.945312 308.210938 C 1154.410156 328.25 1154.410156 328.25 1149.976562 336.339844 C 1149.625 337 1149.625 337 1149.265625 337.671875 C 1148.605469 338.90625 1147.933594 340.132812 1147.257812 341.359375 C 1146.703125 342.433594 1146.15625 343.511719 1145.617188 344.59375 C 1145.386719 345.046875 1145.15625 345.496094 1144.917969 345.960938 C 1144.4375 346.976562 1144.003906 348.015625 1143.597656 349.0625 C 1140.902344 355.890625 1136.117188 358.660156 1130.023438 362.40625 C 1127.917969 363.765625 1125.988281 365.226562 1124.019531 366.773438 C 1119.355469 370.1875 1114.46875 372.128906 1109.0625 374.085938 C 1096.898438 378.433594 1096.898438 378.433594 1086.097656 385.339844 C 1080.058594 390.261719 1072.410156 391.46875 1064.914062 392.796875 C 1063.179688 393.117188 1061.441406 393.441406 1059.703125 393.765625 C 1058.144531 394.050781 1056.585938 394.339844 1055.027344 394.625 C 1049.433594 395.660156 1044.015625 397.015625 1038.574219 398.675781 C 1026.953125 402.214844 1015.25 404.554688 1003.289062 406.628906 C 1002.464844 406.777344 1001.644531 406.921875 1000.800781 407.074219 C 994.828125 408.085938 988.996094 408.363281 982.949219 408.457031 C 971.890625 408.699219 960.886719 409.40625 949.855469 410.234375 C 948.597656 410.328125 947.335938 410.425781 946.074219 410.519531 C 945.089844 410.589844 945.089844 410.589844 944.089844 410.667969 C 939.882812 410.976562 935.675781 411.21875 931.464844 411.417969 C 915.457031 412.191406 899.648438 413.792969 883.75 415.820312 C 881.242188 416.136719 878.730469 416.449219 876.222656 416.757812 C 873.199219 417.132812 870.175781 417.507812 867.152344 417.886719 C 866.585938 417.957031 866.019531 418.027344 865.4375 418.097656 C 863.851562 418.296875 862.261719 418.5 860.671875 418.703125 C 859.324219 418.871094 859.324219 418.871094 857.949219 419.046875 C 855.882812 419.339844 853.859375 419.695312 851.820312 420.132812 C 852.207031 423.464844 853.355469 425.160156 855.523438 427.683594 C 856.441406 428.773438 856.441406 428.773438 857.382812 429.882812 C 858.019531 430.625 858.660156 431.371094 859.316406 432.136719 C 864.023438 437.683594 868.511719 443.332031 872.898438 449.128906 C 875.40625 452.429688 877.984375 455.632812 880.6875 458.769531 C 885.085938 463.878906 889.140625 469.226562 893.203125 474.605469 C 894.65625 476.527344 896.117188 478.4375 897.582031 480.347656 C 902.230469 486.414062 906.863281 492.484375 911.269531 498.730469 C 914.710938 503.605469 918.261719 508.394531 921.808594 513.191406 C 923.660156 515.695312 925.496094 518.207031 927.320312 520.730469 C 931.421875 526.375 935.480469 531.90625 940.261719 537 C 941.898438 538.777344 943.390625 540.625 944.894531 542.515625 C 948.289062 546.71875 951.957031 550.636719 955.679688 554.550781 C 958.480469 557.5 961.195312 560.507812 963.859375 563.582031 C 965.339844 565.261719 966.90625 566.84375 968.46875 568.445312 C 972.515625 572.871094 975.679688 577.765625 978.941406 582.785156 C 981.96875 587.417969 985.175781 591.824219 988.617188 596.15625 C 991.832031 600.203125 994.828125 604.234375 997.503906 608.664062 C 999.101562 611.191406 1000.863281 613.578125 1002.632812 615.992188 C 1009.351562 625.261719 1012.460938 634.394531 1010.785156 645.953125 C 1010.050781 648.457031 1009.09375 650.851562 1008.113281 653.269531 C 1005.132812 660.742188 1005.308594 667.042969 1006.113281 674.949219 C 1006.789062 681.785156 1006.773438 687.234375 1003.507812 693.414062 C 1002.433594 695.695312 1001.929688 697.835938 1001.414062 700.300781 C 1000.507812 704.246094 1000.507812 704.246094 998.507812 706.300781 C 997.53125 706.882812 997.53125 706.882812 996.539062 707.472656 C 992.292969 710.75 991.632812 714.535156 990.492188 719.523438 C 990.152344 721.003906 989.796875 722.484375 989.4375 723.957031 C 989.289062 724.609375 989.136719 725.261719 988.984375 725.933594 C 988.144531 728.113281 987.027344 729.195312 985.292969 730.730469 C 981.457031 734.128906 979.222656 738.144531 976.714844 742.546875 C 975.089844 745.371094 973.457031 748.1875 971.792969 750.988281 C 971.21875 751.957031 971.21875 751.957031 970.632812 752.949219 C 968.515625 756.335938 967.03125 758.445312 963.125 759.804688 C 959.828125 761.082031 959.828125 761.082031 957.21875 763.460938 C 954.574219 765.914062 951.925781 766.183594 948.453125 766.925781 C 946.492188 767.441406 945.355469 767.929688 943.769531 769.132812 C 941.800781 770.492188 941.800781 770.492188 939.457031 770.960938 C 937.300781 770.492188 937.300781 770.492188 935.566406 768.382812 C 933.519531 764.511719 933.507812 761.542969 933.738281 757.269531 C 933.789062 756.328125 933.789062 756.328125 933.839844 755.367188 C 934.785156 740.269531 934.785156 740.269531 937.300781 735.234375 C 937.964844 730.941406 937.523438 727.65625 935.359375 723.878906 C 934.949219 723.160156 934.539062 722.441406 934.117188 721.703125 C 931.972656 718.074219 929.792969 714.46875 927.554688 710.898438 C 927.066406 710.121094 926.582031 709.34375 926.078125 708.542969 C 914.132812 687.023438 914.132812 687.023438 896.058594 672.210938 C 895.285156 672.199219 894.511719 672.191406 893.710938 672.175781 C 889.464844 671.128906 887.375 668.539062 884.4375 665.414062 C 883.898438 664.859375 883.355469 664.304688 882.800781 663.734375 C 880.265625 661.109375 877.808594 658.433594 875.429688 655.667969 C 872.664062 652.472656 869.65625 649.554688 866.628906 646.609375 C 861.574219 641.621094 857.101562 636.464844 852.847656 630.789062 C 850.957031 628.324219 848.964844 625.941406 846.992188 623.542969 C 843.761719 619.597656 840.648438 615.589844 837.621094 611.492188 C 833.21875 605.546875 828.558594 599.835938 823.8125 594.164062 C 822.667969 592.800781 821.53125 591.429688 820.394531 590.058594 C 816.195312 585.019531 811.828125 580.167969 807.355469 575.371094 C 805.773438 573.664062 804.226562 571.941406 802.707031 570.179688 C 800.035156 567.09375 797.261719 564.109375 794.492188 561.117188 C 791.644531 558.042969 788.835938 554.941406 786.042969 551.820312 C 784.109375 549.675781 782.160156 547.546875 780.210938 545.421875 C 776.007812 540.847656 771.855469 536.226562 767.707031 531.601562 C 764.617188 528.15625 761.503906 524.730469 758.371094 521.320312 C 755.671875 518.382812 753.007812 515.414062 750.390625 512.402344 C 748.382812 510.101562 746.335938 507.839844 744.292969 505.570312 C 743.191406 504.347656 742.09375 503.125 741.007812 501.886719 C 736.246094 496.5 731.214844 491.410156 726.125 486.332031 C 724.671875 484.886719 723.222656 483.433594 721.777344 481.980469 C 717.667969 477.863281 713.574219 473.777344 709.140625 470.007812 C 707.304688 468.429688 705.566406 466.753906 703.816406 465.082031 C 693.453125 454.347656 693.453125 454.347656 680.058594 450.074219 C 672.304688 450.347656 664.945312 451.550781 657.375 453.222656 C 656.285156 453.460938 655.195312 453.695312 654.105469 453.929688 C 642.902344 456.367188 631.738281 458.960938 620.585938 461.628906 C 620.0625 461.753906 619.539062 461.878906 619 462.007812 C 593.738281 468.039062 568.65625 474.691406 543.636719 481.652344 C 542.875 481.863281 542.117188 482.074219 541.335938 482.292969 C 522.308594 487.59375 503.503906 493.585938 484.691406 499.601562 C 467.175781 505.199219 449.613281 510.660156 432.042969 516.085938 C 430.414062 516.589844 428.785156 517.09375 427.160156 517.597656 C 425.085938 518.238281 423.015625 518.875 420.941406 519.515625 C 416.433594 520.90625 411.929688 522.3125 407.441406 523.78125 C 406.6875 524.027344 405.933594 524.273438 405.160156 524.523438 C 403.804688 524.96875 402.449219 525.417969 401.101562 525.875 C 397.183594 527.15625 393.460938 527.855469 389.355469 528.167969 C 388.746094 528.21875 388.132812 528.273438 387.503906 528.328125 C 386.773438 528.390625 386.773438 528.390625 386.023438 528.453125 C 368.453125 530.371094 350.492188 537.855469 333.679688 543.171875 C 332.308594 543.605469 332.308594 543.605469 330.914062 544.042969 C 302.875 552.957031 275.191406 563.484375 248.761719 576.410156 C 243.75 578.855469 238.714844 581.160156 233.574219 583.308594 C 227.78125 585.757812 222.023438 588.277344 216.320312 590.9375 C 215.011719 591.542969 213.695312 592.132812 212.378906 592.722656 C 206.78125 595.363281 203.222656 598.300781 199.457031 603.191406 C 198.539062 604.273438 197.621094 605.351562 196.691406 606.425781 C 196.304688 606.886719 195.914062 607.347656 195.511719 607.824219 C 192.632812 610.847656 189.667969 612.699219 185.832031 614.304688 C 184.925781 614.6875 184.019531 615.070312 183.085938 615.464844 C 182.609375 615.667969 182.128906 615.867188 181.636719 616.070312 C 179.078125 617.144531 176.53125 618.238281 173.984375 619.335938 C 173.46875 619.558594 172.953125 619.777344 172.421875 620.007812 C 150.722656 629.375 128.804688 640.191406 108.726562 652.707031 C 107.902344 653.207031 107.078125 653.707031 106.230469 654.222656 C 101.4375 657.371094 98.867188 660.714844 96.234375 665.804688 C 95.230469 667.710938 95.230469 667.710938 93.730469 669.210938 C 91.625 669.679688 89.515625 669.976562 87.378906 670.289062 C 85.367188 670.558594 85.367188 670.558594 83.980469 672.210938 C 80.929688 672.785156 79.496094 672.648438 76.773438 671.089844 C 74.273438 669.347656 71.890625 667.617188 69.734375 665.460938 C 69.640625 664.6875 69.550781 663.914062 69.453125 663.117188 C 69.042969 660.566406 68.722656 659.566406 67.503906 657.453125 C 65.777344 654.101562 65.4375 651.125 65.253906 647.398438 C 65.191406 646.449219 65.191406 646.449219 65.125 645.476562 C 64.996094 643.464844 64.878906 641.449219 64.765625 639.4375 C 64.609375 636.792969 64.441406 634.148438 64.269531 631.503906 C 64.230469 630.867188 64.1875 630.230469 64.148438 629.574219 C 63.847656 625.144531 63.304688 620.800781 62.566406 616.417969 C 60.675781 605.042969 60.957031 593.003906 62.558594 581.625 C 63.070312 577.976562 63.394531 574.316406 63.738281 570.648438 C 64.160156 566.15625 64.734375 561.800781 65.695312 557.386719 C 66.71875 552.238281 65.699219 546.417969 62.960938 541.890625 C 61.960938 539.519531 62.015625 537.476562 61.984375 534.90625 C 61.976562 534.132812 61.976562 534.132812 61.964844 533.34375 C 61.953125 531.664062 61.953125 529.988281 61.957031 528.308594 C 61.957031 527.734375 61.957031 527.160156 61.957031 526.570312 C 61.984375 516.59375 62.910156 507.132812 65.234375 497.40625 C 65.445312 496.484375 65.445312 496.484375 65.660156 495.546875 C 68.113281 485.003906 71.71875 473.15625 80.796875 466.425781 C 85.402344 463.585938 89.882812 462.679688 95.230469 462.898438 C 95.230469 464.132812 95.230469 465.371094 95.230469 466.648438 C 101.664062 465.65625 108.097656 464.667969 114.726562 463.648438 C 114.726562 466.648438 114.726562 466.648438 113.730469 467.742188 C 109.898438 470.445312 105.945312 472.832031 101.851562 475.117188 C 97.941406 477.410156 97.941406 477.410156 95.230469 480.902344 C 103.867188 476.433594 112.480469 471.929688 121.003906 467.257812 C 121.691406 466.882812 122.378906 466.507812 123.085938 466.121094 C 126.132812 464.457031 129.175781 462.785156 132.207031 461.09375 C 137.84375 457.988281 143.566406 455.285156 149.515625 452.832031 C 150.285156 452.515625 151.054688 452.195312 151.847656 451.867188 C 162.421875 447.503906 173.046875 443.261719 183.671875 439.015625 C 185.421875 438.316406 187.171875 437.617188 188.917969 436.917969 C 205.644531 430.230469 222.386719 423.597656 239.199219 417.132812 C 243.214844 415.585938 247.230469 414.039062 251.242188 412.488281 C 251.960938 412.214844 251.960938 412.214844 252.695312 411.929688 C 260.199219 409.03125 267.667969 406.042969 275.09375 402.945312 C 282.65625 399.816406 290.328125 396.984375 298 394.128906 C 300.839844 393.066406 303.683594 392 306.523438 390.933594 C 313.011719 388.5 319.5 386.074219 325.992188 383.652344 C 326.566406 383.441406 327.136719 383.226562 327.722656 383.007812 C 343.925781 376.960938 360.152344 371.054688 376.574219 365.640625 C 377.195312 365.433594 377.8125 365.226562 378.449219 365.015625 C 379.566406 364.648438 380.679688 364.28125 381.796875 363.921875 C 384.898438 362.898438 387.714844 361.613281 390.613281 360.117188 C 393.355469 358.785156 396.222656 357.808594 399.097656 356.800781 C 399.734375 356.574219 400.371094 356.34375 401.027344 356.109375 C 403.039062 355.394531 405.054688 354.683594 407.070312 353.972656 C 409.101562 353.25 411.128906 352.53125 413.160156 351.808594 C 414.417969 351.359375 415.675781 350.914062 416.9375 350.46875 C 419.972656 349.414062 419.972656 349.414062 422.910156 348.109375 C 416.546875 349.230469 410.429688 350.96875 404.242188 352.804688 C 402.519531 353.316406 400.796875 353.820312 399.074219 354.320312 C 397.964844 354.648438 396.855469 354.976562 395.742188 355.304688 C 395.234375 355.453125 394.730469 355.601562 394.207031 355.753906 C 390.898438 356.742188 387.820312 357.976562 384.667969 359.363281 C 381.375 360.296875 378.082031 360.199219 374.6875 360.160156 C 374.132812 360.15625 373.574219 360.152344 373.003906 360.152344 C 371.644531 360.140625 370.28125 360.128906 368.921875 360.113281 C 368.425781 358.875 367.933594 357.636719 367.421875 356.363281 C 370.03125 353.488281 372.234375 351.90625 375.839844 350.492188 C 376.738281 350.140625 377.636719 349.785156 378.5625 349.421875 C 379.027344 349.246094 379.492188 349.066406 379.972656 348.886719 C 381.375 348.351562 382.769531 347.796875 384.160156 347.242188 C 388.972656 345.375 393.523438 343.980469 398.621094 343.191406 C 401.25 342.703125 403.378906 341.746094 405.804688 340.609375 C 410.574219 338.464844 414.621094 336.855469 419.910156 336.855469 C 419.910156 336.363281 419.910156 335.867188 419.910156 335.355469 C 429.417969 331.089844 438.957031 326.894531 448.59375 322.929688 C 449.332031 322.617188 450.070312 322.304688 450.832031 321.984375 C 454.722656 320.40625 458.277344 319.390625 462.449219 318.855469 C 466.757812 318.285156 469.664062 317.152344 473.195312 314.675781 C 473.691406 314.347656 474.1875 314.019531 474.699219 313.683594 C 479.316406 310.59375 483.777344 307.273438 488.148438 303.847656 C 484.78125 299.46875 481.398438 296.933594 476.617188 294.234375 C 475.261719 293.445312 473.90625 292.65625 472.550781 291.867188 C 471.886719 291.480469 471.21875 291.09375 470.53125 290.695312 C 467.960938 289.1875 465.445312 287.589844 462.933594 285.980469 C 456.828125 282.113281 450.554688 278.535156 444.285156 274.941406 C 439.851562 272.394531 435.433594 269.832031 431.066406 267.179688 C 425.976562 264.105469 420.863281 261.105469 415.640625 258.273438 C 414.445312 257.621094 413.257812 256.964844 412.074219 256.304688 C 398.101562 248.539062 383.417969 243.878906 368.171875 239.324219 C 367.566406 239.144531 366.960938 238.960938 366.339844 238.777344 C 362.191406 237.53125 358.039062 236.3125 353.878906 235.105469 C 353.335938 234.949219 352.792969 234.789062 352.238281 234.628906 C 347.167969 233.160156 342.207031 231.800781 336.960938 231.101562 C 332.964844 230.488281 331.121094 229.621094 328.429688 226.570312 C 327 224.144531 327 224.144531 325.804688 221.507812 C 324.050781 217.742188 322.152344 214.320312 319.628906 211.011719 C 316.996094 206.292969 316.890625 200.941406 316.714844 195.671875 C 316.671875 194.570312 316.671875 194.570312 316.628906 193.449219 C 316.417969 187.1875 316.355469 180.925781 316.339844 174.664062 C 316.335938 173.769531 316.332031 172.875 316.328125 171.953125 C 316.335938 167.027344 316.570312 162.1875 317.027344 157.285156 C 317.226562 154.75 317.148438 152.257812 317.042969 149.71875 C 316.957031 144.796875 317.550781 140.113281 318.449219 135.277344 C 318.558594 134.65625 318.671875 134.03125 318.785156 133.390625 C 319.527344 129.683594 320.625 126.355469 322.070312 122.859375 C 324.507812 116.746094 325.054688 110.601562 325.71875 104.101562 C 326.53125 97.292969 326.53125 97.292969 328.765625 94.4375 C 329.398438 93.972656 330.027344 93.507812 330.679688 93.03125 C 334.183594 89.011719 336.636719 84.503906 339.070312 79.78125 C 340.089844 77.898438 341.140625 76.171875 342.3125 74.386719 C 344.292969 71.261719 345.464844 68.085938 346.566406 64.566406 C 346.753906 64.007812 346.9375 63.445312 347.128906 62.867188 C 348.242188 59.425781 349.105469 55.996094 349.789062 52.441406 C 350.378906 50.269531 351.3125 49.238281 353.175781 48.015625 C 355.050781 47.640625 355.050781 47.640625 356.925781 48.015625 C 358.566406 49.515625 358.566406 49.515625 359.921875 51.015625 C 360.417969 51.015625 360.914062 51.015625 361.421875 51.015625 C 361.621094 50.492188 361.820312 49.96875 362.027344 49.429688 C 362.292969 48.746094 362.554688 48.0625 362.828125 47.359375 C 363.089844 46.679688 363.351562 46 363.621094 45.300781 C 364.710938 42.875 365.246094 42.082031 367.945312 41.808594 Z M 876.5625 240.828125 C 876.5625 241.074219 876.5625 241.320312 876.5625 241.578125 C 878.792969 241.578125 881.019531 241.578125 883.3125 241.578125 C 883.3125 241.328125 883.3125 241.082031 883.3125 240.828125 C 881.085938 240.828125 878.859375 240.828125 876.5625 240.828125 Z M 837.714844 245.34375 C 837.144531 245.425781 836.570312 245.503906 835.980469 245.585938 C 834.773438 245.757812 833.5625 245.925781 832.355469 246.097656 C 830.507812 246.359375 828.65625 246.609375 826.808594 246.863281 C 825.632812 247.027344 824.457031 247.195312 823.28125 247.363281 C 822.453125 247.472656 822.453125 247.472656 821.609375 247.585938 C 818.929688 247.976562 816.65625 248.40625 814.328125 249.828125 C 819.183594 251.753906 822.929688 251.03125 827.964844 250.015625 C 829.5 249.726562 831.035156 249.4375 832.570312 249.148438 C 833.300781 249.007812 834.035156 248.863281 834.789062 248.71875 C 837.320312 248.234375 839.855469 247.804688 842.398438 247.390625 C 843.078125 247.277344 843.757812 247.167969 844.457031 247.050781 C 844.910156 246.976562 845.359375 246.902344 845.820312 246.828125 C 845.820312 246.085938 845.820312 245.34375 845.820312 244.578125 C 843.078125 244.578125 840.425781 244.964844 837.714844 245.34375 Z M 778.335938 255.832031 C 778.335938 256.078125 778.335938 256.324219 778.335938 256.582031 C 783.179688 256.882812 786.628906 256.273438 791.082031 254.332031 C 791.082031 254.082031 791.082031 253.835938 791.082031 253.582031 C 784.402344 253.234375 784.402344 253.234375 778.335938 255.832031 Z M 215.203125 442.640625 C 213.347656 443.386719 213.347656 443.386719 211.363281 444.46875 C 210.679688 444.824219 209.996094 445.179688 209.292969 445.542969 C 208.507812 445.964844 208.507812 445.964844 207.707031 446.390625 C 209.046875 446.945312 209.046875 446.945312 210.707031 447.140625 C 212.355469 446.425781 212.355469 446.425781 213.890625 445.3125 C 214.421875 444.957031 214.953125 444.601562 215.496094 444.238281 C 216.09375 443.816406 216.09375 443.816406 216.703125 443.390625 C 216.210938 443.144531 215.714844 442.894531 215.203125 442.640625 Z M 215.203125 442.640625 "/>
<path style=" stroke:none;fill-rule:nonzero;fill:rgb(99.607843%,90.980393%,0%);fill-opacity:1;" d="M 154.46875 441.140625 C 154.742188 446.007812 154.742188 446.007812 153.644531 447.542969 C 148.507812 451.5 141.390625 453.785156 134.972656 453.894531 C 133.570312 452.492188 133.960938 450.519531 133.828125 448.648438 C 134.222656 447.140625 134.222656 447.140625 135.636719 445.949219 C 138.867188 444.484375 142.164062 443.6875 145.609375 442.875 C 146.296875 442.707031 146.980469 442.535156 147.6875 442.363281 C 152.722656 441.140625 152.722656 441.140625 154.46875 441.140625 Z M 154.46875 441.140625 "/>
</g>
</svg>
