<?xml version="1.0" encoding="UTF-8"?>
<svg version="1.1" xmlns="http://www.w3.org/2000/svg" width="1575" height="1053">
<path d="M0 0 C3.76608409 0.3119833 6.59340267 1.26794341 10.11328125 2.6484375 C10.78488281 2.91027832 11.45648438 3.17211914 12.1484375 3.44189453 C13.67195575 4.03853831 15.19348634 4.64027344 16.71337891 5.24609375 C19.58404873 6.38591057 22.46364553 7.50143476 25.34375 8.6171875 C37.31727953 13.28909352 48.97620857 18.19457245 60.30078125 24.2734375 C61.12513672 24.70833496 61.94949219 25.14323242 62.79882812 25.59130859 C65.49360406 27.01497309 68.17966245 28.45386317 70.86328125 29.8984375 C71.69706299 30.34179443 72.53084473 30.78515137 73.38989258 31.24194336 C78.00515729 33.76585063 81.86549546 36.4844001 85.77026367 40.00146484 C87.76185773 41.65662596 89.72201276 42.48030021 92.17578125 43.2734375 C96.53753878 44.6928569 99.88672681 46.95295541 103.64111328 49.51611328 C108.88390896 52.98018922 114.36662729 56.05921209 119.80078125 59.2109375 C122.40224095 60.72451028 125.00227469 62.24051323 127.6015625 63.7578125 C128.25308792 64.13802048 128.90461334 64.51822845 129.57588196 64.90995789 C134.73129007 67.92519385 139.84231261 71.01013841 144.94604492 74.11206055 C155.71869597 80.65898988 166.61743563 86.80903123 177.80151367 92.61987305 C190.05415796 99.0530653 190.05415796 99.0530653 193.6796875 104.25 C194.47031052 106.82574041 194.38500243 108.96231124 194.23828125 111.6484375 C194.18779767 116.4065152 194.35764903 119.3492612 197.30078125 123.2734375 C203.05078189 128.1773351 209.30705812 132.46703609 215.55078125 136.7109375 C216.38287109 137.27949463 217.21496094 137.84805176 218.07226562 138.43383789 C222.57912735 141.49374604 227.11964849 144.42626365 231.80078125 147.2109375 C242.22981237 153.50546073 251.80796225 161.11582829 261.51171875 168.45703125 C269.94755726 174.83369575 278.52395216 180.92602242 287.26220703 186.88037109 C299.26509895 195.08258682 310.86355453 203.69612743 322.28466797 212.68945312 C327.25575526 216.59504943 332.27968652 220.43248139 337.30078125 224.2734375 C338.05166016 224.84787598 338.80253906 225.42231445 339.57617188 226.01416016 C349.93332829 233.93230778 360.32242413 241.8053003 370.76196289 249.61450195 C377.86786255 254.93534469 384.93131814 260.3107525 391.98583984 265.69946289 C396.6120842 269.23176322 401.25344104 272.73988373 405.92578125 276.2109375 C415.15118368 283.13324228 423.78225358 290.4917374 432.0871582 298.48901367 C437.06030073 303.23004527 441.16645211 306.79840202 448.30078125 307.2734375 C450.9464724 306.83580438 453.40722213 306.3239964 455.98828125 305.6484375 C456.71724609 305.46748535 457.44621094 305.2865332 458.19726562 305.10009766 C460.56919603 304.50610915 462.93532956 303.8927005 465.30078125 303.2734375 C466.12529785 303.05816406 466.94981445 302.84289062 467.79931641 302.62109375 C471.07370379 301.763652 474.34762489 300.90514543 477.6159668 300.02490234 C491.59662829 296.2734375 491.59662829 296.2734375 497.30078125 296.2734375 C497.30078125 295.6134375 497.30078125 294.9534375 497.30078125 294.2734375 C495.93953125 294.7065625 495.93953125 294.7065625 494.55078125 295.1484375 C486.36911477 297.46712841 477.801477 298.95897748 469.30078125 298.2734375 C468.64078125 297.2834375 467.98078125 296.2934375 467.30078125 295.2734375 C475.2037665 291.05252492 483.15451539 287.68813114 491.56640625 284.65234375 C494.51079649 283.56513689 497.32191242 282.3800194 500.17578125 281.0859375 C505.33441103 278.97558895 510.68392371 278.22567313 516.17919922 277.48754883 C520.75127564 276.83843958 524.97175757 275.7822759 529.37890625 274.39453125 C539.79914424 271.33279958 550.5562073 270.23221227 561.30078125 268.8359375 C565.5099932 268.28118193 569.71821297 267.71942814 573.92578125 267.15234375 C574.99623184 267.00880463 576.06668243 266.8652655 577.16957092 266.71737671 C585.53615997 265.57195474 593.85037198 264.18710069 602.171875 262.75390625 C615.30768192 260.50877661 628.44920386 258.8409907 641.69671631 257.41830444 C648.21692167 256.71611763 654.73366907 255.98321914 661.25 255.24609375 C661.93012398 255.16931711 662.61024796 255.09254047 663.31098175 255.01343727 C680.79201913 253.03440552 698.2340596 250.75727904 715.67578125 248.4609375 C716.79232023 248.31409767 716.79232023 248.31409767 717.93141556 248.16429138 C725.36560022 247.18648602 732.79917815 246.20419227 740.23193359 245.21557617 C741.38420944 245.06269638 742.53648529 244.90981659 743.72367859 244.75230408 C746.25684482 244.41318922 748.7890779 244.06945977 751.32087708 243.72047424 C751.99055071 243.62900777 752.66022434 243.53754129 753.35019112 243.44330311 C755.21494701 243.18842127 757.07937065 242.93111202 758.94377136 242.67364502 C764.03982595 242.06611646 769.11150396 241.93456872 774.23828125 241.8359375 C784.65724107 241.5449382 794.99749148 240.88039626 805.38308716 240.03701782 C827.02598073 238.28233256 848.67434254 237.36576873 870.37232971 236.59899902 C878.60164887 236.30682225 886.82853477 235.96611295 895.05493164 235.60092163 C908.66676464 235.01221608 922.15376751 234.92634108 935.73828125 236.0859375 C937.01469482 236.19095581 937.01469482 236.19095581 938.31689453 236.2980957 C943.29089028 236.77715445 947.97719023 237.65901507 952.83203125 238.84765625 C961.37568434 240.75070079 969.67008149 240.50323781 978.36328125 240.2734375 C981.45830028 240.19328697 984.55276892 240.13368005 987.6484375 240.0859375 C988.69222313 240.04859497 988.69222313 240.04859497 989.75709534 240.01049805 C994.15260066 239.94401363 996.81063549 240.58005449 1000.30078125 243.2734375 C1002.36328125 246.015625 1002.36328125 246.015625 1004.30078125 249.1484375 C1009.31840369 257.30603254 1009.31840369 257.30603254 1017.42578125 261.8359375 C1019.84011319 262.51702336 1021.13347879 263.1181684 1022.984375 264.8359375 C1025.18570106 268.91198338 1025.09224779 273.44255111 1025.38476562 277.98632812 C1025.81293801 282.90382304 1026.58941484 285.71944351 1030.30078125 289.2734375 C1032.44787834 290.68173419 1032.44787834 290.68173419 1034.73828125 291.7109375 C1039.98246839 294.44966456 1043.37732051 297.50305527 1045.30078125 303.2734375 C1047.42274288 317.25667878 1047.72016613 331.53747932 1047.98876953 345.65136719 C1048.05129535 348.79932071 1048.1344871 351.94631156 1048.21875 355.09375 C1048.84009444 381.80329227 1048.84009444 381.80329227 1042.92578125 392.5859375 C1042.45724731 393.46318481 1042.45724731 393.46318481 1041.97924805 394.3581543 C1041.09969674 396.00374432 1040.20092436 397.63902035 1039.30078125 399.2734375 C1038.56279127 400.70642775 1037.8318355 402.14310346 1037.11328125 403.5859375 C1036.80648438 404.18792969 1036.4996875 404.78992188 1036.18359375 405.41015625 C1035.54217404 406.76394918 1034.96104984 408.1468178 1034.41796875 409.54296875 C1030.82622559 418.64305751 1024.44399775 422.3373878 1016.31640625 427.32714844 C1013.50990951 429.1384658 1010.93880979 431.08886713 1008.3125 433.1484375 C1002.09323349 437.70139809 995.5719777 440.2884596 988.36328125 442.8984375 C972.14125436 448.69291876 972.14125436 448.69291876 957.73828125 457.8984375 C949.68360151 464.45822177 939.48278781 466.06735014 929.48828125 467.8359375 C927.17174374 468.26622099 924.85533584 468.69720291 922.5390625 469.12890625 C920.45967529 469.51063396 918.38025327 469.89217211 916.30078125 470.2734375 C908.84079964 471.65131037 901.6138766 473.45839957 894.36108398 475.67358398 C878.86035498 480.39108739 863.25441704 483.50841959 847.30078125 486.2734375 C846.20572266 486.46993896 845.11066406 486.66644043 843.98242188 486.86889648 C836.02121211 488.21485207 828.2396049 488.58580831 820.17578125 488.7109375 C805.42797352 489.03155653 790.75213764 489.97582203 776.04443359 491.08178711 C774.36296899 491.20704661 772.68149078 491.33212361 771 491.45703125 C769.68915939 491.55588623 769.68915939 491.55588623 768.35183716 491.65673828 C762.74329831 492.06618406 757.13459131 492.3900589 751.51757812 492.65649414 C730.16658882 493.68963237 709.08653053 495.82427371 687.88537598 498.52453613 C684.53884981 498.94822903 681.19107538 499.36154662 677.84321785 499.7745676 C673.81043746 500.27224226 669.77817713 500.77405607 665.74609375 501.27734375 C664.99305088 501.37130495 664.24000801 501.46526615 663.46414566 501.56207466 C661.34446239 501.82766148 659.22515205 502.09602661 657.10595703 502.36547852 C655.3090593 502.59292503 655.3090593 502.59292503 653.4758606 502.82496643 C650.72148645 503.21401407 648.02019321 503.69243785 645.30078125 504.2734375 C645.81720343 508.71466822 647.35104479 510.97172349 650.23828125 514.3359375 C651.46611328 515.78806641 651.46611328 515.78806641 652.71875 517.26953125 C653.57082031 518.26082031 654.42289063 519.25210938 655.30078125 520.2734375 C661.57404032 527.66655108 667.56408236 535.19442334 673.41308594 542.92431641 C676.75636935 547.31960659 680.19280903 551.59338921 683.80078125 555.7734375 C689.66383555 562.58355151 695.07418647 569.71228636 700.48828125 576.88134766 C702.42687623 579.43985435 704.37813795 581.98831576 706.33203125 584.53515625 C712.53168527 592.62280379 718.70704689 600.71281766 724.58374023 609.0390625 C729.17166482 615.53537353 733.91016484 621.91962282 738.640625 628.3125 C741.10844001 631.64917089 743.55715665 634.99870991 745.9921875 638.359375 C751.45771639 645.88372066 756.87016296 653.2588217 763.25 660.046875 C765.430407 662.41417403 767.42314779 664.87935496 769.42578125 667.3984375 C773.95323248 673.00195549 778.84428218 678.22284683 783.80908203 683.43994141 C787.54737451 687.37232802 791.16641725 691.37998436 794.71972656 695.48022461 C796.69157225 697.71666787 798.78148928 699.82700762 800.86328125 701.9609375 C806.26324243 707.85923096 810.48286183 714.38190519 814.83056641 721.07641602 C818.86856628 727.25047516 823.14815156 733.12449221 827.73828125 738.8984375 C832.02351712 744.29170294 836.01740801 749.66372689 839.58984375 755.56640625 C841.72059681 758.93766623 844.06978444 762.12012861 846.42578125 765.3359375 C855.38723603 777.69124788 859.5362483 789.86390736 857.30078125 805.2734375 C856.31870631 808.60937459 855.04288784 811.80204569 853.73828125 815.0234375 C849.76243752 824.98387037 849.9941818 833.38421738 851.06787109 843.91992188 C851.96947888 853.03050785 851.95179126 860.29516226 847.59375 868.53515625 C846.15950761 871.57263031 845.48750339 874.42816748 844.80078125 877.7109375 C843.59383767 882.97266907 843.59383767 882.97266907 840.92578125 885.7109375 C839.62640625 886.484375 839.62640625 886.484375 838.30078125 887.2734375 C832.63581968 891.64073804 831.75944906 896.68353697 830.23828125 903.3359375 C829.78117835 905.30903433 829.31155046 907.27928059 828.828125 909.24609375 C828.62952881 910.11500244 828.43093262 910.98391113 828.22631836 911.87915039 C827.10412489 914.78217106 825.61524111 916.2248017 823.30078125 918.2734375 C818.18651154 922.8005448 815.20829735 928.15498821 811.86328125 934.0234375 C809.69838035 937.78715213 807.51773484 941.54011587 805.30078125 945.2734375 C804.53302368 946.56652832 804.53302368 946.56652832 803.74975586 947.88574219 C800.92879265 952.4003769 798.9499284 955.21455855 793.73828125 957.0234375 C789.34188936 958.73080321 789.34188936 958.73080321 785.86328125 961.8984375 C782.33384583 965.16962155 778.80180677 965.52956854 774.171875 966.515625 C771.55859763 967.20538801 770.04290254 967.85484548 767.92578125 969.4609375 C765.30078125 971.2734375 765.30078125 971.2734375 762.17578125 971.8984375 C759.30078125 971.2734375 759.30078125 971.2734375 756.98828125 968.4609375 C754.25522205 963.29849234 754.23952075 959.34529404 754.55078125 953.6484375 C754.61749023 952.39365601 754.61749023 952.39365601 754.68554688 951.11352539 C755.94324152 930.98851696 755.94324152 930.98851696 759.30078125 924.2734375 C760.18507157 918.5535343 759.59413492 914.17493013 756.7109375 909.140625 C756.16445557 908.18260986 755.61797363 907.22459473 755.05493164 906.23754883 C752.19249555 901.40068919 749.28554969 896.59841338 746.30078125 891.8359375 C745.65214111 890.80041748 745.00350098 889.76489746 744.33520508 888.69799805 C728.39996825 860.01240083 728.39996825 860.01240083 704.30078125 840.2734375 C703.26695313 840.25796875 702.233125 840.2425 701.16796875 840.2265625 C695.50604981 838.83109965 692.71609271 835.37489575 688.80078125 831.2109375 C688.08019531 830.47166016 687.35960937 829.73238281 686.6171875 828.97070312 C683.2341768 825.47451756 679.95896591 821.90947783 676.78515625 818.22265625 C673.09731426 813.96069388 669.08925425 810.07452682 665.05078125 806.1484375 C658.30752625 799.49597385 652.34518443 792.62657 646.66943359 785.06103516 C644.15152501 781.77239323 641.49545917 778.59573106 638.86328125 775.3984375 C634.55702777 770.14122235 630.40333031 764.8000265 626.36328125 759.3359375 C620.49416657 751.41136569 614.2798373 743.80202695 607.94970703 736.24267578 C606.42530453 734.42215008 604.90736989 732.59643606 603.390625 730.76953125 C597.78991536 724.05504978 591.96527608 717.58679027 586.00390625 711.19140625 C583.89499595 708.91488025 581.82873337 706.62133352 579.80078125 704.2734375 C576.24260278 700.15983604 572.54236005 696.18248475 568.84594727 692.19360352 C565.05176861 688.09631681 561.30523997 683.95924407 557.578125 679.80078125 C555.00268315 676.94261508 552.40388429 674.10637133 549.80078125 671.2734375 C544.19770689 665.17360572 538.65865159 659.01782529 533.12890625 652.8515625 C529.00433527 648.2589551 524.85446996 643.6917289 520.67578125 639.1484375 C517.07424244 635.23093092 513.52289914 631.27702097 510.03515625 627.2578125 C507.3574033 624.19407715 504.62838445 621.1769978 501.90234375 618.15625 C500.43170972 616.52662851 498.96631201 614.89213615 497.51879883 613.24194336 C491.1687015 606.06231882 484.45803081 599.27788568 477.67114258 592.51342773 C475.73467576 590.58234203 473.80364169 588.64593868 471.87304688 586.70898438 C466.39222518 581.22525491 460.93407979 575.77604448 455.02124023 570.75317383 C452.57381817 568.64818942 450.25693348 566.41523108 447.92285156 564.1862793 C434.10126104 549.88096896 434.10126104 549.88096896 416.23812866 544.18351746 C405.89877936 544.54635457 396.08034188 546.15147238 385.98828125 548.37890625 C384.5346941 548.69413677 383.08102821 549.00900443 381.62728882 549.3235321 C366.6871221 552.57202954 351.79548717 556.0300005 336.92578125 559.5859375 C336.22718239 559.75260422 335.52858353 559.91927094 334.808815 560.09098816 C301.12082444 568.12989524 267.6670644 576.99527033 234.30078125 586.2734375 C233.28914917 586.55449341 232.27751709 586.83554932 231.23522949 587.12512207 C205.86193363 594.19197842 180.78079648 602.18235274 155.69458008 610.19750977 C132.33139007 617.65966888 108.91367943 624.93947098 85.47868347 632.17263031 C83.30772224 632.84275218 81.13685587 633.51318061 78.96600342 634.18365479 C76.20310085 635.03697903 73.43973967 635.88879551 70.67608643 636.73968506 C64.6607945 638.59443612 58.65457317 640.47097526 52.67138672 642.42724609 C51.66676895 642.75440109 50.66215118 643.08155609 49.62709045 643.41862488 C47.82011261 644.01014093 46.01533691 644.60845887 44.21360779 645.21577454 C38.98990002 646.92581886 34.02886972 647.85969742 28.55078125 648.2734375 C27.73665771 648.34449707 26.92253418 648.41555664 26.08374023 648.48876953 C25.10642944 648.57167236 25.10642944 648.57167236 24.109375 648.65625 C0.67400767 651.21283553 -23.27502917 661.18800556 -45.69921875 668.2734375 C-47.52573975 668.84916504 -47.52573975 668.84916504 -49.38916016 669.43652344 C-86.7778858 681.3145701 -123.70212673 695.34833651 -158.94921875 712.57885742 C-165.62879587 715.83573311 -172.34313875 718.90830935 -179.19921875 721.7734375 C-186.92650386 725.03623801 -194.60745035 728.3961676 -202.21044922 731.93969727 C-203.95519033 732.74727261 -205.70990052 733.53320095 -207.46484375 734.31835938 C-214.93438343 737.83996756 -219.68056543 741.75493136 -224.69921875 748.2734375 C-225.92219324 749.71620925 -227.1504767 751.15451773 -228.38671875 752.5859375 C-228.90621094 753.20082031 -229.42570313 753.81570313 -229.9609375 754.44921875 C-233.79989037 758.47796255 -237.75296234 760.94940625 -242.87109375 763.0859375 C-244.07918701 763.59729248 -245.28728027 764.10864746 -246.53198242 764.63549805 C-247.16961517 764.90180023 -247.80724792 765.16810242 -248.46420288 765.44247437 C-251.87612091 766.87076426 -255.27398454 768.3316845 -258.671875 769.79296875 C-259.35893021 770.08822952 -260.04598541 770.3834903 -260.75386047 770.68769836 C-289.69353577 783.17394068 -318.92139455 797.59205029 -345.69921875 814.2734375 C-346.7975 814.93988281 -347.89578125 815.60632813 -349.02734375 816.29296875 C-355.41900874 820.48856703 -358.84625973 824.94865114 -362.359375 831.734375 C-363.69921875 834.2734375 -363.69921875 834.2734375 -365.69921875 836.2734375 C-368.5084567 836.8977126 -371.32151609 837.29146027 -374.16796875 837.7109375 C-376.85381013 838.07011189 -376.85381013 838.07011189 -378.69921875 840.2734375 C-382.77022282 841.03675076 -384.68327263 840.85506286 -388.3125 838.77734375 C-391.64760777 836.45579984 -394.82265655 834.1499997 -397.69921875 831.2734375 C-397.82296875 830.2421875 -397.94671875 829.2109375 -398.07421875 828.1484375 C-398.62237308 824.74988065 -399.05210698 823.41532257 -400.67724609 820.59838867 C-402.97775657 816.13063646 -403.43330333 812.16679821 -403.67578125 807.19921875 C-403.76005875 805.93068306 -403.76005875 805.93068306 -403.84603882 804.63652039 C-404.02166584 801.95372112 -404.17418796 799.27027877 -404.32421875 796.5859375 C-404.53734714 793.06065265 -404.76025377 789.5360694 -404.98828125 786.01171875 C-405.04208954 785.16302216 -405.09589783 784.31432556 -405.15133667 783.43991089 C-405.54921856 777.53394843 -406.27475263 771.74427599 -407.26220703 765.9050293 C-409.77997999 750.74353502 -409.40823438 734.69406241 -407.26953125 719.52734375 C-406.58775707 714.66594716 -406.1531893 709.78540329 -405.69921875 704.8984375 C-405.13366544 698.90943079 -404.36935717 693.10585202 -403.0859375 687.22265625 C-401.72395659 680.35772215 -403.08169862 672.60212736 -406.73144531 666.56640625 C-408.06610242 663.40417125 -407.99429243 660.6818533 -408.03515625 657.25390625 C-408.04765663 656.22364067 -408.04765663 656.22364067 -408.06040955 655.17256165 C-408.07991111 652.93512985 -408.07984466 650.69844105 -408.07421875 648.4609375 C-408.07400726 647.69700684 -408.07379578 646.93307617 -408.07357788 646.14599609 C-408.03682174 632.84828764 -406.80245082 620.23563279 -403.69921875 607.2734375 C-403.41836426 606.04536377 -403.41836426 606.04536377 -403.13183594 604.79248047 C-399.86071633 590.73909527 -395.05289477 574.94625098 -382.94921875 565.9765625 C-376.80488761 562.19121564 -370.83106164 560.98234187 -363.69921875 561.2734375 C-363.69921875 562.9234375 -363.69921875 564.5734375 -363.69921875 566.2734375 C-355.11921875 564.9534375 -346.53921875 563.6334375 -337.69921875 562.2734375 C-337.69921875 566.2734375 -337.69921875 566.2734375 -339.02734375 567.73046875 C-344.13573278 571.33333662 -349.40817695 574.51461207 -354.8671875 577.5625 C-360.08487283 580.62116581 -360.08487283 580.62116581 -363.69921875 585.2734375 C-352.18173501 579.31842928 -340.69561605 573.31620466 -329.32421875 567.0859375 C-328.40801758 566.58562012 -327.49181641 566.08530273 -326.54785156 565.56982422 C-322.48606517 563.35106066 -318.42966596 561.12399774 -314.38671875 558.87109375 C-306.869383 554.73045011 -299.23673519 551.12736057 -291.30078125 547.859375 C-290.27478821 547.4345282 -289.24879517 547.0096814 -288.19171143 546.57196045 C-274.08847084 540.75436398 -259.91881868 535.09963652 -245.75065994 529.44250488 C-243.41797013 528.51095854 -241.08552828 527.57879369 -238.75314331 526.64648438 C-216.44911258 517.73215436 -194.12058319 508.88908786 -171.69921875 500.2734375 C-166.34391076 498.21389385 -160.98972006 496.15146897 -155.63671875 494.0859375 C-154.67946899 493.71690811 -154.67946899 493.71690811 -153.70288086 493.34042358 C-143.69184055 489.47771844 -133.73524619 485.49113842 -123.82983398 481.36450195 C-113.74270019 477.19517542 -103.51058505 473.41967938 -93.28341675 469.61032104 C-89.49274002 468.19642222 -85.70423561 466.77682655 -81.91625977 465.35571289 C-73.26410136 462.11050244 -64.60778528 458.87650899 -55.94921875 455.6484375 C-55.18765221 455.36438805 -54.42608566 455.08033859 -53.64144135 454.78768158 C-32.03576347 446.73148206 -10.39595193 438.85850648 11.50683594 431.63818359 C12.33206757 431.36435852 13.15729919 431.09053345 14.00753784 430.80841064 C15.49415615 430.31634282 16.98251367 429.82947298 18.47317505 429.34979248 C22.60520767 427.98454413 26.36226815 426.27292809 30.22665405 424.27935791 C33.88626438 422.50450209 37.70891782 421.19986719 41.54296875 419.85546875 C42.39255157 419.55275558 43.2421344 419.25004242 44.11746216 418.93815613 C46.80189399 417.98262097 49.48869973 417.03399275 52.17578125 416.0859375 C54.88379053 415.12582949 57.59128451 414.16429234 60.29837036 413.20158386 C61.9760127 412.60546633 63.65427738 412.01109677 65.33322144 411.4186554 C69.38459034 410.00982017 69.38459034 410.00982017 73.30078125 408.2734375 C64.81276191 409.7683424 56.65523126 412.08362487 48.40454102 414.53198242 C46.10944453 415.21207441 43.81175612 415.88281675 41.51367188 416.55273438 C40.03238832 416.9890277 38.55126284 417.42585819 37.0703125 417.86328125 C36.39410355 418.06026108 35.71789459 418.25724091 35.02119446 418.46018982 C30.61096482 419.77751066 26.50404582 421.42498658 22.30078125 423.2734375 C17.90841752 424.51522046 13.51815561 424.38856339 8.98828125 424.3359375 C8.24771484 424.33142578 7.50714844 424.32691406 6.74414062 424.32226562 C4.92965226 424.31055925 3.11520591 424.29262648 1.30078125 424.2734375 C0.64078125 422.6234375 -0.01921875 420.9734375 -0.69921875 419.2734375 C2.77983797 415.44389982 5.71960857 413.33296176 10.52734375 411.44921875 C11.72488281 410.97806641 12.92242187 410.50691406 14.15625 410.02148438 C14.77677246 409.78550537 15.39729492 409.54952637 16.03662109 409.30639648 C17.90614895 408.59342457 19.76568981 407.8544427 21.625 407.11523438 C28.04042502 404.62797066 34.10960927 402.76708964 40.90625 401.71948242 C44.41646992 401.06561091 47.25437896 399.78992157 50.48828125 398.2734375 C56.84936526 395.41687185 62.24773453 393.2734375 69.30078125 393.2734375 C69.30078125 392.6134375 69.30078125 391.9534375 69.30078125 391.2734375 C81.97960614 385.58875794 94.69971056 379.99635525 107.55078125 374.7109375 C108.53554443 374.29408691 109.52030762 373.87723633 110.53491211 373.44775391 C115.72382997 371.3442917 120.46682573 369.99398027 126.03125 369.28125 C131.77381608 368.51742467 135.6505591 367.01009341 140.36328125 363.7109375 C141.02521484 363.27346191 141.68714844 362.83598633 142.36914062 362.38525391 C148.52580302 358.2655046 154.47243599 353.84339004 160.30078125 349.2734375 C155.81087869 343.43947026 151.30149944 340.05863806 144.92578125 336.4609375 C143.11769042 335.41022819 141.31040673 334.35812878 139.50390625 333.3046875 C138.61509766 332.79035156 137.72628906 332.27601563 136.81054688 331.74609375 C133.37880497 329.73244908 130.02813086 327.60307682 126.67578125 325.4609375 C118.53342969 320.30407942 110.16827254 315.53775127 101.80859375 310.74438477 C95.89503708 307.35245629 90.00414368 303.93474729 84.17578125 300.3984375 C77.39193041 296.30288301 70.56906753 292.30632715 63.60351562 288.52734375 C62.01376253 287.66167667 60.42941765 286.78602934 58.84960938 285.90234375 C40.21322863 275.55347318 20.63389137 269.34332764 0.30078125 263.2734375 C-0.50593018 263.03157715 -1.3126416 262.7897168 -2.14379883 262.54052734 C-7.6756688 260.88389502 -13.21518294 259.2552513 -18.76171875 257.6484375 C-19.48420807 257.43797791 -20.20669739 257.22751831 -20.95108032 257.01068115 C-27.70853779 255.05279266 -34.32630464 253.24360082 -41.3203125 252.3125 C-46.65446128 251.49478091 -49.11301687 250.33628646 -52.69921875 246.2734375 C-54.60546875 243.0390625 -54.60546875 243.0390625 -56.19921875 239.5234375 C-58.53822733 234.50219981 -61.06925509 229.94226662 -64.4375 225.53125 C-67.95059362 219.24466142 -68.08836499 212.11277436 -68.32421875 205.0859375 C-68.38005127 203.61870239 -68.38005127 203.61870239 -68.43701172 202.12182617 C-68.71949809 193.77806408 -68.80170122 185.43404352 -68.82421875 177.0859375 C-68.8288916 175.89395752 -68.83356445 174.70197754 -68.83837891 173.47387695 C-68.82644675 166.90706026 -68.51357689 160.45750286 -67.90429688 153.92016602 C-67.64241739 150.5403618 -67.7470929 147.22092105 -67.88671875 143.8359375 C-67.99932132 137.27339488 -67.20767112 131.0334032 -66.01171875 124.5859375 C-65.86307373 123.75586182 -65.71442871 122.92578613 -65.5612793 122.07055664 C-64.57401282 117.12939182 -63.10848939 112.69247261 -61.1796875 108.03515625 C-57.93117077 99.88719795 -57.20285828 91.69677087 -56.31640625 83.03125 C-55.23373907 73.95653056 -55.23373907 73.95653056 -52.25390625 70.1484375 C-51.41085937 69.5296875 -50.5678125 68.9109375 -49.69921875 68.2734375 C-45.02684614 62.92016636 -41.75515066 56.9093919 -38.5078125 50.6171875 C-37.14902945 48.10505296 -35.7478796 45.80143941 -34.18359375 43.42578125 C-31.54725672 39.25768705 -29.98060298 35.02429402 -28.51171875 30.3359375 C-28.26486328 29.58892578 -28.01800781 28.84191406 -27.76367188 28.07226562 C-26.27876098 23.48290101 -25.12599077 18.91094898 -24.21484375 14.17382812 C-23.42854589 11.27584397 -22.18091292 9.9042651 -19.69921875 8.2734375 C-17.19921875 7.7734375 -17.19921875 7.7734375 -14.69921875 8.2734375 C-12.51171875 10.2734375 -12.51171875 10.2734375 -10.69921875 12.2734375 C-10.03921875 12.2734375 -9.37921875 12.2734375 -8.69921875 12.2734375 C-8.43367188 11.57476562 -8.168125 10.87609375 -7.89453125 10.15625 C-7.54132813 9.24617188 -7.188125 8.33609375 -6.82421875 7.3984375 C-6.47617187 6.49351563 -6.128125 5.58859375 -5.76953125 4.65625 C-4.31617894 1.42068463 -3.60002049 0.36469093 0 0 Z M678.30078125 265.2734375 C678.30078125 265.6034375 678.30078125 265.9334375 678.30078125 266.2734375 C681.27078125 266.2734375 684.24078125 266.2734375 687.30078125 266.2734375 C687.30078125 265.9434375 687.30078125 265.6134375 687.30078125 265.2734375 C684.33078125 265.2734375 681.36078125 265.2734375 678.30078125 265.2734375 Z M626.4921875 271.296875 C625.72905746 271.40311188 624.96592743 271.50934875 624.17967224 271.61880493 C622.56646989 271.84459122 620.95344132 272.07162211 619.34057617 272.29980469 C616.8769988 272.64650701 614.41220892 272.98347877 611.94726562 273.3203125 C610.37882129 273.54106386 608.81045896 273.7623988 607.2421875 273.984375 C606.13889854 274.13294449 606.13889854 274.13294449 605.01332092 274.28451538 C601.43960207 274.80164522 598.40514983 275.37523128 595.30078125 277.2734375 C601.77597563 279.83822858 606.77493348 278.87604952 613.48828125 277.5234375 C615.5351189 277.13782255 617.58199358 276.75240407 619.62890625 276.3671875 C620.60537109 276.17769531 621.58183594 275.98820312 622.58789062 275.79296875 C625.96372336 275.14648098 629.34577428 274.57532859 632.73828125 274.0234375 C633.64449219 273.87390625 634.55070312 273.724375 635.484375 273.5703125 C636.08378906 273.47234375 636.68320313 273.374375 637.30078125 273.2734375 C637.30078125 272.2834375 637.30078125 271.2934375 637.30078125 270.2734375 C633.64165606 270.2734375 630.1076645 270.79150352 626.4921875 271.296875 Z M547.30078125 285.2734375 C547.30078125 285.6034375 547.30078125 285.9334375 547.30078125 286.2734375 C553.75970839 286.67712045 558.36186703 285.8649637 564.30078125 283.2734375 C564.30078125 282.9434375 564.30078125 282.6134375 564.30078125 282.2734375 C555.39096223 281.81183112 555.39096223 281.81183112 547.30078125 285.2734375 Z M-203.69921875 534.2734375 C-206.17739712 535.26839758 -206.17739712 535.26839758 -208.82421875 536.7109375 C-209.73429688 537.18402344 -210.644375 537.65710938 -211.58203125 538.14453125 C-212.63003906 538.70333984 -212.63003906 538.70333984 -213.69921875 539.2734375 C-211.91253654 540.01343008 -211.91253654 540.01343008 -209.69921875 540.2734375 C-207.49743567 539.31971401 -207.49743567 539.31971401 -205.44921875 537.8359375 C-204.7428125 537.36285156 -204.03640625 536.88976562 -203.30859375 536.40234375 C-202.51195312 535.84353516 -202.51195312 535.84353516 -201.69921875 535.2734375 C-202.35921875 534.9434375 -203.01921875 534.6134375 -203.69921875 534.2734375 Z " fill="#FEE800" transform="translate(490.69921875,55.7265625)"/>
<path d="M0 0 C0.36716028 6.48649826 0.36716028 6.48649826 -1.09765625 8.53515625 C-7.94970964 13.81137806 -17.43907703 16.85489961 -26 17 C-27.86618552 15.13381448 -27.3485526 12.50222346 -27.5234375 10.0078125 C-27 8 -27 8 -25.11328125 6.41015625 C-20.80221537 4.45746518 -16.40786264 3.39819953 -11.8125 2.3125 C-10.89791016 2.08755859 -9.98332031 1.86261719 -9.04101562 1.63085938 C-2.32425437 0 -2.32425437 0 0 0 Z " fill="#FEE800" transform="translate(206,588)"/>
</svg>
